<svg xmlns="http://www.w3.org/2000/svg" xmlns:xlink="http://www.w3.org/1999/xlink" width="813.5px" height="813.5px"> <path fill-rule="evenodd"  stroke="rgb(255, 232, 178)" stroke-width="1px" stroke-linecap="butt" stroke-linejoin="miter" opacity="0.8" fill="none" d="M406.499,370.500 C426.382,370.500 442.500,386.617 442.500,406.499 C442.500,426.382 426.382,442.499 406.499,442.499 C386.617,442.499 370.499,426.382 370.499,406.499 C370.499,386.617 386.617,370.500 406.499,370.500 Z"/><path fill-rule="evenodd"  stroke="rgb(255, 232, 178)" stroke-width="1px" stroke-linecap="butt" stroke-linejoin="miter" opacity="0.6" fill="none" d="M406.499,327.429 C450.169,327.429 485.570,362.830 485.570,406.499 C485.570,450.169 450.169,485.570 406.499,485.570 C362.830,485.570 327.429,450.169 327.429,406.499 C327.429,362.830 362.830,327.429 406.499,327.429 Z"/><path fill-rule="evenodd"  stroke="rgb(255, 232, 178)" stroke-width="1px" stroke-linecap="butt" stroke-linejoin="miter" opacity="0.4" fill="none" d="M406.499,263.540 C485.454,263.540 549.459,327.545 549.459,406.499 C549.459,485.454 485.454,549.459 406.499,549.459 C327.545,549.459 263.540,485.454 263.540,406.499 C263.540,327.545 327.545,263.540 406.499,263.540 Z"/><path fill-rule="evenodd"  stroke="rgb(255, 232, 178)" stroke-width="1px" stroke-linecap="butt" stroke-linejoin="miter" opacity="0.2" fill="none" d="M406.499,197.869 C521.723,197.869 615.130,291.276 615.130,406.499 C615.130,521.723 521.723,615.131 406.499,615.131 C291.276,615.131 197.869,521.723 197.869,406.499 C197.869,291.276 291.276,197.869 406.499,197.869 Z"/><path fill-rule="evenodd"  stroke="rgb(255, 232, 178)" stroke-width="1px" stroke-linecap="butt" stroke-linejoin="miter" opacity="0.102" fill="none" d="M406.499,121.202 C564.65,121.202 691.797,248.934 691.797,406.499 C691.797,564.65 564.65,691.797 406.499,691.797 C248.934,691.797 121.202,564.65 121.202,406.499 C121.202,248.934 248.934,121.202 406.499,121.202 Z"/><path fill-rule="evenodd"  stroke="rgb(255, 232, 178)" stroke-width="1px" stroke-linecap="butt" stroke-linejoin="miter" opacity="0.09" fill="none" d="M406.499,1.736 C630.44,1.736 811.263,182.955 811.263,406.499 C811.263,630.44 630.44,811.263 406.499,811.263 C182.955,811.263 1.736,630.44 1.736,406.499 C1.736,182.955 182.955,1.736 406.499,1.736 Z"/></svg>
    